<svg xmlns="http://www.w3.org/2000/svg" xmlns:xlink="http://www.w3.org/1999/xlink" width="24" height="24" viewBox="0 0 24 24">
  <defs>
    <path id="actif-a" d="M6,12.5 C6,13.3286 5.328,14 4.5,14 C3.6714,14 3,13.3286 3,12.5 C3,11.672 3.6714,11 4.5,11 C5.328,11 6,11.672 6,12.5 Z"/>
    <path id="actif-b" d="M21,12.5 C21,13.3286 20.328,14 19.5,14 C18.6714,14 18,13.3286 18,12.5 C18,11.672 18.6714,11 19.5,11 C20.328,11 21,11.672 21,12.5 Z"/>
    <path id="actif-c" d="M13.5,12.5 C13.5,13.3286 12.828,14 12,14 C11.1714,14 10.5,13.3286 10.5,12.5 C10.5,11.672 11.1714,11 12,11 C12.828,11 13.5,11.672 13.5,12.5 Z"/>
  </defs>
  <g fill="none" fill-rule="evenodd" stroke-linecap="round" stroke-linejoin="round">
    <use fill="#4BB164" xlink:href="#actif-a"/>
    <path stroke="#4BB164" d="M6.5,12.5 C6.5,13.6045661 5.6043187,14.5 4.5,14.5 C3.39525763,14.5 2.5,13.6047424 2.5,12.5 C2.5,11.3956813 3.39543388,10.5 4.5,10.5 C5.60414237,10.5 6.5,11.3958576 6.5,12.5 Z"/>
    <use fill="#4BB164" xlink:href="#actif-b"/>
    <path stroke="#4BB164" d="M21.5,12.5 C21.5,13.6045661 20.6043187,14.5 19.5,14.5 C18.3952576,14.5 17.5,13.6047424 17.5,12.5 C17.5,11.3956813 18.3954339,10.5 19.5,10.5 C20.6041424,10.5 21.5,11.3958576 21.5,12.5 Z"/>
    <g>
      <use fill="#4BB164" xlink:href="#actif-c"/>
      <path stroke="#4BB164" d="M14,12.5 C14,13.6045661 13.1043187,14.5 12,14.5 C10.8952576,14.5 10,13.6047424 10,12.5 C10,11.3956813 10.8954339,10.5 12,10.5 C13.1041424,10.5 14,11.3958576 14,12.5 Z"/>
    </g>
  </g>
</svg>
