<svg xmlns="http://www.w3.org/2000/svg" width="24" height="24" viewBox="0 0 24 24">
  <g fill="none" fill-rule="evenodd" stroke-linecap="round" stroke-linejoin="round">
    <path stroke="#246C36" d="M6.5 12.5C6.5 13.6045661 5.6043187 14.5 4.5 14.5 3.39525763 14.5 2.5 13.6047424 2.5 12.5 2.5 11.3956813 3.39543388 10.5 4.5 10.5 5.60414237 10.5 6.5 11.3958576 6.5 12.5zM21.5 12.5C21.5 13.6045661 20.6043187 14.5 19.5 14.5 18.3952576 14.5 17.5 13.6047424 17.5 12.5 17.5 11.3956813 18.3954339 10.5 19.5 10.5 20.6041424 10.5 21.5 11.3958576 21.5 12.5zM14 12.5C14 13.6045661 13.1043187 14.5 12 14.5 10.8952576 14.5 10 13.6047424 10 12.5 10 11.3956813 10.8954339 10.5 12 10.5 13.1041424 10.5 14 11.3958576 14 12.5z"/>
  </g>
</svg>
